<mxfile host="app.diagrams.net" modified="2022-02-27T22:36:39.932Z" agent="5.0 (Windows NT 10.0; Win64; x64) AppleWebKit/537.36 (KHTML, like Gecko) Chrome/98.0.4758.102 Safari/537.36" etag="J-8YFsuLw3Ce0NRJj1q1" version="16.6.1" type="github">
  <diagram id="kgpKYQtTHZ0yAKxKKP6v" name="Page-1">
    <mxGraphModel dx="1146" dy="526" grid="1" gridSize="10" guides="1" tooltips="1" connect="1" arrows="1" fold="1" page="1" pageScale="1" pageWidth="850" pageHeight="1100" math="0" shadow="0">
      <root>
        <mxCell id="0" />
        <mxCell id="1" parent="0" />
        <mxCell id="3nuBFxr9cyL0pnOWT2aG-1" value="CoppeliaSim(LUA code)" style="shape=umlLifeline;perimeter=lifelinePerimeter;container=1;collapsible=0;recursiveResize=0;rounded=0;shadow=0;strokeWidth=1;size=40;" parent="1" vertex="1">
          <mxGeometry x="60" y="90" width="140" height="350" as="geometry" />
        </mxCell>
        <mxCell id="3nuBFxr9cyL0pnOWT2aG-3" value="Event Triggered" style="verticalAlign=bottom;startArrow=oval;endArrow=block;startSize=8;shadow=0;strokeWidth=1;entryX=0.504;entryY=0.201;entryDx=0;entryDy=0;entryPerimeter=0;" parent="3nuBFxr9cyL0pnOWT2aG-1" target="3nuBFxr9cyL0pnOWT2aG-1" edge="1">
          <mxGeometry relative="1" as="geometry">
            <mxPoint x="-50" y="70" as="sourcePoint" />
            <mxPoint x="45" y="70" as="targetPoint" />
          </mxGeometry>
        </mxCell>
        <mxCell id="3nuBFxr9cyL0pnOWT2aG-4" value="" style="points=[];perimeter=orthogonalPerimeter;rounded=0;shadow=0;strokeWidth=1;" parent="3nuBFxr9cyL0pnOWT2aG-1" vertex="1">
          <mxGeometry x="65" y="60" width="10" height="250" as="geometry" />
        </mxCell>
        <mxCell id="EQ4Hd0iQYBZpfvo5nu6f-24" value="" style="points=[];perimeter=orthogonalPerimeter;rounded=0;shadow=0;strokeWidth=1;" vertex="1" parent="3nuBFxr9cyL0pnOWT2aG-1">
          <mxGeometry x="75" y="210" width="10" height="40" as="geometry" />
        </mxCell>
        <mxCell id="EQ4Hd0iQYBZpfvo5nu6f-25" value="" style="points=[];perimeter=orthogonalPerimeter;rounded=0;shadow=0;strokeWidth=1;" vertex="1" parent="3nuBFxr9cyL0pnOWT2aG-1">
          <mxGeometry x="75" y="260" width="10" height="40" as="geometry" />
        </mxCell>
        <mxCell id="3nuBFxr9cyL0pnOWT2aG-5" value="SnowPlow Robot" style="shape=umlLifeline;perimeter=lifelinePerimeter;container=1;collapsible=0;recursiveResize=0;rounded=0;shadow=0;strokeWidth=1;" parent="1" vertex="1">
          <mxGeometry x="300" y="90" width="100" height="350" as="geometry" />
        </mxCell>
        <mxCell id="3nuBFxr9cyL0pnOWT2aG-8" value="API Call Initialize Components" style="verticalAlign=bottom;endArrow=block;shadow=0;strokeWidth=1;" parent="1" edge="1">
          <mxGeometry relative="1" as="geometry">
            <mxPoint x="130" y="160" as="sourcePoint" />
            <mxPoint x="340" y="160" as="targetPoint" />
          </mxGeometry>
        </mxCell>
        <mxCell id="3nuBFxr9cyL0pnOWT2aG-9" value="Wait For Next Request" style="verticalAlign=bottom;endArrow=block;shadow=0;strokeWidth=1;startArrow=none;" parent="1" source="EQ4Hd0iQYBZpfvo5nu6f-20" edge="1">
          <mxGeometry relative="1" as="geometry">
            <mxPoint x="350" y="190" as="sourcePoint" />
            <mxPoint x="140" y="190" as="targetPoint" />
            <Array as="points" />
          </mxGeometry>
        </mxCell>
        <mxCell id="EQ4Hd0iQYBZpfvo5nu6f-2" value="Front Sensor" style="shape=umlLifeline;perimeter=lifelinePerimeter;container=1;collapsible=0;recursiveResize=0;rounded=0;shadow=0;strokeWidth=1;" vertex="1" parent="1">
          <mxGeometry x="520" y="90" width="100" height="350" as="geometry" />
        </mxCell>
        <mxCell id="EQ4Hd0iQYBZpfvo5nu6f-22" value="" style="points=[];perimeter=orthogonalPerimeter;rounded=0;shadow=0;strokeWidth=1;" vertex="1" parent="EQ4Hd0iQYBZpfvo5nu6f-2">
          <mxGeometry x="45" y="140" width="10" height="150" as="geometry" />
        </mxCell>
        <mxCell id="EQ4Hd0iQYBZpfvo5nu6f-23" value="" style="points=[];perimeter=orthogonalPerimeter;rounded=0;shadow=0;strokeWidth=1;" vertex="1" parent="EQ4Hd0iQYBZpfvo5nu6f-2">
          <mxGeometry x="35" y="260" width="10" height="20" as="geometry" />
        </mxCell>
        <mxCell id="EQ4Hd0iQYBZpfvo5nu6f-3" value="Bottom Sensor" style="shape=umlLifeline;perimeter=lifelinePerimeter;container=1;collapsible=0;recursiveResize=0;rounded=0;shadow=0;strokeWidth=1;" vertex="1" parent="1">
          <mxGeometry x="740" y="90" width="100" height="350" as="geometry" />
        </mxCell>
        <mxCell id="EQ4Hd0iQYBZpfvo5nu6f-12" value="return" style="verticalAlign=bottom;endArrow=open;dashed=1;endSize=8;exitX=0;exitY=0.95;shadow=0;strokeWidth=1;" edge="1" parent="EQ4Hd0iQYBZpfvo5nu6f-3">
          <mxGeometry relative="1" as="geometry">
            <mxPoint x="-160" y="190" as="targetPoint" />
            <mxPoint x="45" y="190" as="sourcePoint" />
          </mxGeometry>
        </mxCell>
        <mxCell id="EQ4Hd0iQYBZpfvo5nu6f-18" value="" style="points=[];perimeter=orthogonalPerimeter;rounded=0;shadow=0;strokeWidth=1;" vertex="1" parent="EQ4Hd0iQYBZpfvo5nu6f-3">
          <mxGeometry x="45" y="160" width="10" height="80" as="geometry" />
        </mxCell>
        <mxCell id="EQ4Hd0iQYBZpfvo5nu6f-19" value="" style="points=[];perimeter=orthogonalPerimeter;rounded=0;shadow=0;strokeWidth=1;" vertex="1" parent="EQ4Hd0iQYBZpfvo5nu6f-3">
          <mxGeometry x="35" y="210" width="10" height="20" as="geometry" />
        </mxCell>
        <mxCell id="EQ4Hd0iQYBZpfvo5nu6f-4" value="Move Robot" style="verticalAlign=bottom;endArrow=block;shadow=0;strokeWidth=1;" edge="1" parent="1">
          <mxGeometry relative="1" as="geometry">
            <mxPoint x="130" y="220" as="sourcePoint" />
            <mxPoint x="340" y="220" as="targetPoint" />
          </mxGeometry>
        </mxCell>
        <mxCell id="EQ4Hd0iQYBZpfvo5nu6f-5" value="Check Front is Clear; Continue" style="verticalAlign=bottom;endArrow=block;shadow=0;strokeWidth=1;" edge="1" parent="1">
          <mxGeometry relative="1" as="geometry">
            <mxPoint x="350" y="239.66" as="sourcePoint" />
            <mxPoint x="560" y="239.66" as="targetPoint" />
          </mxGeometry>
        </mxCell>
        <mxCell id="EQ4Hd0iQYBZpfvo5nu6f-9" value="Check Bottom for Edge of Map; Continue" style="verticalAlign=bottom;endArrow=block;shadow=0;strokeWidth=1;" edge="1" parent="1">
          <mxGeometry relative="1" as="geometry">
            <mxPoint x="570" y="259.99999999999994" as="sourcePoint" />
            <mxPoint x="780" y="259.99999999999994" as="targetPoint" />
          </mxGeometry>
        </mxCell>
        <mxCell id="EQ4Hd0iQYBZpfvo5nu6f-10" value="Edge Detected" style="verticalAlign=bottom;endArrow=block;shadow=0;strokeWidth=1;" edge="1" parent="1">
          <mxGeometry relative="1" as="geometry">
            <mxPoint x="790" y="310" as="sourcePoint" />
            <mxPoint x="140" y="310" as="targetPoint" />
            <Array as="points">
              <mxPoint x="690" y="310" />
            </Array>
          </mxGeometry>
        </mxCell>
        <mxCell id="EQ4Hd0iQYBZpfvo5nu6f-11" value="return" style="verticalAlign=bottom;endArrow=open;dashed=1;endSize=8;exitX=0;exitY=0.95;shadow=0;strokeWidth=1;" edge="1" parent="1">
          <mxGeometry relative="1" as="geometry">
            <mxPoint x="360" y="280" as="targetPoint" />
            <mxPoint x="565" y="280" as="sourcePoint" />
          </mxGeometry>
        </mxCell>
        <mxCell id="3nuBFxr9cyL0pnOWT2aG-7" value="return" style="verticalAlign=bottom;endArrow=open;dashed=1;endSize=8;exitX=0;exitY=0.95;shadow=0;strokeWidth=1;" parent="1" edge="1">
          <mxGeometry relative="1" as="geometry">
            <mxPoint x="140" y="280" as="targetPoint" />
            <mxPoint x="345" y="280" as="sourcePoint" />
          </mxGeometry>
        </mxCell>
        <mxCell id="EQ4Hd0iQYBZpfvo5nu6f-13" value="Rotate Robot" style="verticalAlign=bottom;endArrow=block;shadow=0;strokeWidth=1;" edge="1" parent="1">
          <mxGeometry relative="1" as="geometry">
            <mxPoint x="130" y="330" as="sourcePoint" />
            <mxPoint x="340" y="330" as="targetPoint" />
          </mxGeometry>
        </mxCell>
        <mxCell id="EQ4Hd0iQYBZpfvo5nu6f-15" value="Rotate Robot" style="verticalAlign=bottom;endArrow=block;shadow=0;strokeWidth=1;" edge="1" parent="1">
          <mxGeometry relative="1" as="geometry">
            <mxPoint x="130" y="380.0000000000001" as="sourcePoint" />
            <mxPoint x="340" y="380.0000000000001" as="targetPoint" />
          </mxGeometry>
        </mxCell>
        <mxCell id="EQ4Hd0iQYBZpfvo5nu6f-14" value="Object Detected" style="verticalAlign=bottom;endArrow=block;shadow=0;strokeWidth=1;exitX=0.512;exitY=0.768;exitDx=0;exitDy=0;exitPerimeter=0;" edge="1" parent="1" source="EQ4Hd0iQYBZpfvo5nu6f-2">
          <mxGeometry x="-0.4842" relative="1" as="geometry">
            <mxPoint x="790.19" y="350.0000000000001" as="sourcePoint" />
            <mxPoint x="140" y="359" as="targetPoint" />
            <Array as="points" />
            <mxPoint as="offset" />
          </mxGeometry>
        </mxCell>
        <mxCell id="EQ4Hd0iQYBZpfvo5nu6f-16" value="" style="points=[];perimeter=orthogonalPerimeter;rounded=0;shadow=0;strokeWidth=1;" vertex="1" parent="1">
          <mxGeometry x="135" y="150" width="10" height="140" as="geometry" />
        </mxCell>
        <mxCell id="EQ4Hd0iQYBZpfvo5nu6f-20" value="" style="points=[];perimeter=orthogonalPerimeter;rounded=0;shadow=0;strokeWidth=1;" vertex="1" parent="1">
          <mxGeometry x="345" y="150" width="10" height="250" as="geometry" />
        </mxCell>
        <mxCell id="EQ4Hd0iQYBZpfvo5nu6f-21" value="" style="verticalAlign=bottom;endArrow=none;shadow=0;strokeWidth=1;" edge="1" parent="1" target="EQ4Hd0iQYBZpfvo5nu6f-20">
          <mxGeometry relative="1" as="geometry">
            <mxPoint x="350" y="190" as="sourcePoint" />
            <mxPoint x="140" y="190" as="targetPoint" />
            <Array as="points">
              <mxPoint x="240" y="190" />
            </Array>
          </mxGeometry>
        </mxCell>
      </root>
    </mxGraphModel>
  </diagram>
</mxfile>
